<?xml version="1.0" encoding="UTF-8" standalone="no"?>
<!-- Created with Inkscape (http://www.inkscape.org/) -->

<svg
   xmlns:dc="http://purl.org/dc/elements/1.1/"
   xmlns:cc="http://creativecommons.org/ns#"
   xmlns:rdf="http://www.w3.org/1999/02/22-rdf-syntax-ns#"
   xmlns:svg="http://www.w3.org/2000/svg"
   xmlns="http://www.w3.org/2000/svg"
   xmlns:sodipodi="http://sodipodi.sourceforge.net/DTD/sodipodi-0.dtd"
   xmlns:inkscape="http://www.inkscape.org/namespaces/inkscape"
   width="600"
   height="600"
   viewBox="0 0 600 600"
   id="svg2"
   version="1.1"
   inkscape:version="0.91 r13725"
   sodipodi:docname="logo.svg"
   inkscape:export-filename="/home/pcon/Dropbox/Art/Sites/SFDC/passport/favicon_16x16.png"
   inkscape:export-xdpi="2.4000001"
   inkscape:export-ydpi="2.4000001">
  <defs
     id="defs4" />
  <sodipodi:namedview
     id="base"
     pagecolor="#ffffff"
     bordercolor="#666666"
     borderopacity="1.0"
     inkscape:pageopacity="0.0"
     inkscape:pageshadow="2"
     inkscape:zoom="0.98994949"
     inkscape:cx="175.35249"
     inkscape:cy="292.85549"
     inkscape:document-units="px"
     inkscape:current-layer="layer1"
     showgrid="false"
     units="px"
     inkscape:window-width="1920"
     inkscape:window-height="1059"
     inkscape:window-x="0"
     inkscape:window-y="0"
     inkscape:window-maximized="1" />
  <metadata
     id="metadata7">
    <rdf:RDF>
      <cc:Work
         rdf:about="">
        <dc:format>image/svg+xml</dc:format>
        <dc:type
           rdf:resource="http://purl.org/dc/dcmitype/StillImage" />
        <dc:title></dc:title>
      </cc:Work>
    </rdf:RDF>
  </metadata>
  <g
     inkscape:label="Layer 1"
     inkscape:groupmode="layer"
     id="layer1"
     transform="translate(0,-452.36216)">
    <rect
       style="color:#000000;clip-rule:nonzero;display:inline;overflow:visible;visibility:visible;opacity:1;isolation:auto;mix-blend-mode:normal;color-interpolation:sRGB;color-interpolation-filters:linearRGB;solid-color:#000000;solid-opacity:1;fill:#333a4d;fill-opacity:1;fill-rule:nonzero;stroke:none;stroke-width:1;stroke-linecap:butt;stroke-linejoin:miter;stroke-miterlimit:4;stroke-dasharray:none;stroke-dashoffset:0;stroke-opacity:1;marker:none;color-rendering:auto;image-rendering:auto;shape-rendering:auto;text-rendering:auto;enable-background:accumulate"
       id="rect4514"
       width="422.03275"
       height="600"
       x="88.983627"
       y="452.36215"
       rx="30.078096"
       ry="30.078096" />
    <text
       xml:space="preserve"
       style="font-style:normal;font-variant:normal;font-weight:normal;font-stretch:normal;font-size:50.92438889px;line-height:100%;font-family:'Abyssinica SIL';-inkscape-font-specification:'Abyssinica SIL, Normal';text-align:end;letter-spacing:3.13387132px;word-spacing:0px;writing-mode:lr-tb;text-anchor:end;fill:#a0892c;fill-opacity:1;stroke:none;stroke-width:1px;stroke-linecap:butt;stroke-linejoin:miter;stroke-opacity:1"
       x="451.19836"
       y="886.1012"
       id="text4516"
       sodipodi:linespacing="100%"><tspan
         sodipodi:role="line"
         id="tspan4518"
         x="453.72433"
         y="886.1012">Passport To</tspan><tspan
         sodipodi:role="line"
         x="453.72433"
         y="927.14746"
         id="tspan4520">Dreamforce</tspan></text>
    <path
       style="fill:#a0892c;fill-opacity:1;stroke:#444d66;stroke-width:4.02570724;stroke-opacity:1"
       d="m 239.96816,561.40236 c -26.35263,0 -47.72111,21.95636 -47.72111,49.04776 0,6.46148 1.2254,12.61173 3.43373,18.26128 -12.04906,7.28394 -20.13418,20.72345 -20.13418,36.13228 0,23.15086 18.2561,41.9462 40.77555,41.9462 2.91444,0 5.76505,-0.33901 8.50631,-0.93649 7.15266,17.81262 24.22169,30.35734 44.13138,30.35734 17.31225,0 32.49053,-9.46151 40.8536,-23.64595 5.79401,2.57123 12.17366,4.01904 18.88553,4.01904 16.42064,0 30.90327,-8.518 39.488,-21.49987 1.0973,0.07 2.20218,0.0779 3.31673,0.0779 29.22735,0 52.94971,-24.34666 52.94971,-54.39354 0,-30.04681 -23.72236,-54.39351 -52.9497,-54.39351 -7.85613,0 -15.30346,1.75941 -22.00713,4.9165 -8.36325,-14.18441 -23.54135,-23.64595 -40.85372,-23.64595 -12.05506,0 -23.05049,4.59393 -31.44991,12.17414 -8.74433,-11.22398 -22.14887,-18.41731 -37.2248,-18.41731 z"
       id="path4184-1"
       inkscape:connector-curvature="0" />
  </g>
</svg>
