<?xml version="1.0" encoding="UTF-8" standalone="no"?>
<!-- Created with Inkscape (http://www.inkscape.org/) -->

<svg
   xmlns:dc="http://purl.org/dc/elements/1.1/"
   xmlns:cc="http://creativecommons.org/ns#"
   xmlns:rdf="http://www.w3.org/1999/02/22-rdf-syntax-ns#"
   xmlns:svg="http://www.w3.org/2000/svg"
   xmlns="http://www.w3.org/2000/svg"
   xmlns:sodipodi="http://sodipodi.sourceforge.net/DTD/sodipodi-0.dtd"
   xmlns:inkscape="http://www.inkscape.org/namespaces/inkscape"
   width="1024"
   height="512"
   viewBox="0 0 1024 512.00001"
   id="svg2"
   version="1.1"
   inkscape:version="0.91 r13725"
   sodipodi:docname="twitter.svg"
   inkscape:export-filename="/home/pcon/Dropbox/Art/Sites/SFDC/passport/twitter_large.png"
   inkscape:export-xdpi="90"
   inkscape:export-ydpi="90">
  <defs
     id="defs4" />
  <sodipodi:namedview
     id="base"
     pagecolor="#ffffff"
     bordercolor="#666666"
     borderopacity="1.0"
     inkscape:pageopacity="0.0"
     inkscape:pageshadow="2"
     inkscape:zoom="0.49497475"
     inkscape:cx="84.289014"
     inkscape:cy="563.66251"
     inkscape:document-units="px"
     inkscape:current-layer="layer1"
     showgrid="false"
     units="px"
     inkscape:window-width="1920"
     inkscape:window-height="1059"
     inkscape:window-x="0"
     inkscape:window-y="0"
     inkscape:window-maximized="1" />
  <metadata
     id="metadata7">
    <rdf:RDF>
      <cc:Work
         rdf:about="">
        <dc:format>image/svg+xml</dc:format>
        <dc:type
           rdf:resource="http://purl.org/dc/dcmitype/StillImage" />
        <dc:title></dc:title>
      </cc:Work>
    </rdf:RDF>
  </metadata>
  <g
     inkscape:label="Layer 1"
     inkscape:groupmode="layer"
     id="layer1"
     transform="translate(0,-540.36216)">
    <g
       id="g4448"
       transform="matrix(0.78396039,0,0,0.78396039,231.23171,472.05503)">
      <g
         id="g4252">
        <path
           style="color:#000000;clip-rule:nonzero;display:inline;overflow:visible;visibility:visible;opacity:1;isolation:auto;mix-blend-mode:normal;color-interpolation:sRGB;color-interpolation-filters:linearRGB;solid-color:#000000;solid-opacity:1;fill:#333a4d;fill-opacity:1;fill-rule:nonzero;stroke:none;stroke-width:3;stroke-linecap:butt;stroke-linejoin:miter;stroke-miterlimit:4;stroke-dasharray:none;stroke-dashoffset:0;stroke-opacity:1;marker:none;color-rendering:auto;image-rendering:auto;shape-rendering:auto;text-rendering:auto;enable-background:accumulate"
           d="M 156.42858,474.50507 532.26031,341.17004 803.08883,599.87742 c 10.74333,10.2625 4.16641,19.1655 -3.80311,21.0562 L 281.17604,739.24507 c -2.44049,0.5573 -3.44572,1.17334 -4.81849,-1.83601 z"
           id="rect4204"
           inkscape:connector-curvature="0"
           sodipodi:nodetypes="ccssssc" />
        <path
           style="color:#000000;clip-rule:nonzero;display:inline;overflow:visible;visibility:visible;opacity:1;isolation:auto;mix-blend-mode:normal;color-interpolation:sRGB;color-interpolation-filters:linearRGB;solid-color:#000000;solid-opacity:1;fill:#e9ddaf;fill-opacity:1;fill-rule:nonzero;stroke:#000000;stroke-width:1.27557456;stroke-linecap:butt;stroke-linejoin:miter;stroke-miterlimit:4;stroke-dasharray:none;stroke-dashoffset:0;stroke-opacity:1;marker:none;color-rendering:auto;image-rendering:auto;shape-rendering:auto;text-rendering:auto;enable-background:accumulate"
           d="M 156.42858,459.35278 532.26031,326.01775 803.08883,584.72513 c 10.74333,10.2625 4.16641,19.1655 -3.80311,21.0562 L 276.63036,728.63847 Z"
           id="rect4204-3"
           inkscape:connector-curvature="0"
           sodipodi:nodetypes="ccsscc" />
        <path
           style="color:#000000;clip-rule:nonzero;display:inline;overflow:visible;visibility:visible;opacity:1;isolation:auto;mix-blend-mode:normal;color-interpolation:sRGB;color-interpolation-filters:linearRGB;solid-color:#000000;solid-opacity:1;fill:#e9ddaf;fill-opacity:1;fill-rule:nonzero;stroke:#000000;stroke-width:1.27557456;stroke-linecap:butt;stroke-linejoin:miter;stroke-miterlimit:4;stroke-dasharray:none;stroke-dashoffset:0;stroke-opacity:1;marker:none;color-rendering:auto;image-rendering:auto;shape-rendering:auto;text-rendering:auto;enable-background:accumulate"
           d="m 154.32568,455.98633 373.4387,-139.89731 275.31826,253.9241 c 10.92143,10.07275 4.50146,19.08959 -3.43372,21.11959 L 276.44693,728.34463 Z"
           id="rect4204-3-9"
           inkscape:connector-curvature="0"
           sodipodi:nodetypes="ccsscc" />
        <path
           style="color:#000000;clip-rule:nonzero;display:inline;overflow:visible;visibility:visible;opacity:1;isolation:auto;mix-blend-mode:normal;color-interpolation:sRGB;color-interpolation-filters:linearRGB;solid-color:#000000;solid-opacity:1;fill:#e9ddaf;fill-opacity:1;fill-rule:nonzero;stroke:#000000;stroke-width:1.27557456;stroke-linecap:butt;stroke-linejoin:miter;stroke-miterlimit:4;stroke-dasharray:none;stroke-dashoffset:0;stroke-opacity:1;marker:none;color-rendering:auto;image-rendering:auto;shape-rendering:auto;text-rendering:auto;enable-background:accumulate"
           d="M 150.1894,462.82499 521.07418,308.31836 800.87646,551.27809 c 11.0993,9.63782 4.84113,18.90222 -3.05659,21.24316 L 276.54688,728.92806 Z"
           id="rect4204-3-9-7"
           inkscape:connector-curvature="0"
           sodipodi:nodetypes="ccsscc" />
        <path
           style="color:#000000;clip-rule:nonzero;display:inline;overflow:visible;visibility:visible;opacity:1;isolation:auto;mix-blend-mode:normal;color-interpolation:sRGB;color-interpolation-filters:linearRGB;solid-color:#000000;solid-opacity:1;fill:#333a4d;fill-opacity:1;fill-rule:nonzero;stroke:none;stroke-width:3;stroke-linecap:butt;stroke-linejoin:miter;stroke-miterlimit:4;stroke-dasharray:none;stroke-dashoffset:0;stroke-opacity:1;marker:none;color-rendering:auto;image-rendering:auto;shape-rendering:auto;text-rendering:auto;enable-background:accumulate"
           d="M -76.771593,250.30108 385.34404,89.240478 c 13.91787,-4.850779 22.89297,-1.385654 34.47824,10.905802 l 385.26929,408.75386 c 15.18867,16.11451 17.77689,26.76799 -4.04061,34.34517 L 289.6406,720.85725 c -5.40244,1.87626 -18.24789,6.53474 -11.84865,19.3678 L -77.7503,272.51392 c -9.771435,-12.8542 -6.285842,-19.68093 0.978707,-22.21284 z"
           id="rect4201"
           inkscape:connector-curvature="0"
           sodipodi:nodetypes="sssssscss" />
      </g>
      <text
         transform="matrix(0.93596323,-0.35209775,0.35209775,0.93596323,0,0)"
         sodipodi:linespacing="100%"
         id="text4259"
         y="603.97369"
         x="233.99373"
         style="font-style:normal;font-variant:normal;font-weight:normal;font-stretch:normal;font-size:69.24649048px;line-height:100%;font-family:'Abyssinica SIL';-inkscape-font-specification:'Abyssinica SIL, Normal';text-align:center;letter-spacing:4.26132774px;word-spacing:0px;writing-mode:lr-tb;text-anchor:middle;fill:#a0892c;fill-opacity:1;stroke:none;stroke-width:1px;stroke-linecap:butt;stroke-linejoin:miter;stroke-opacity:1"
         xml:space="preserve"><tspan
           id="tspan4263"
           y="603.97369"
           x="236.12439"
           sodipodi:role="line">Passport To</tspan><tspan
           id="tspan4267"
           y="673.22021"
           x="236.12439"
           sodipodi:role="line">Dreamforce</tspan></text>
      <path
         inkscape:connector-curvature="0"
         id="path4184-1-0"
         d="m 198.95144,225.26779 c -22.47458,8.7732 -33.39388,34.6253 -24.38095,57.74588 2.14965,5.51441 5.24082,10.35525 9.0037,14.44155 -7.85265,10.22765 -10.27682,24.38898 -5.15051,37.53932 7.70197,19.75761 29.52444,29.72034 48.72991,22.22326 2.48555,-0.97026 4.80388,-2.20859 6.94296,-3.63111 12.02609,12.82055 30.7567,17.84404 47.73647,11.21578 14.76457,-5.76352 24.56149,-18.89134 26.97489,-33.78094 5.79677,0.26544 11.71926,-0.62284 17.4434,-2.85734 14.00418,-5.46669 23.52171,-17.55769 26.52423,-31.49478 0.9591,-0.3056 1.90403,-0.66665 2.85455,-1.0377 24.92625,-9.73025 37.05783,-38.40595 27.06164,-64.04881 -9.99615,-25.64281 -38.32734,-38.52344 -63.25358,-28.7932 -6.70001,2.61544 -12.46605,6.59631 -17.13289,11.52242 -11.85147,-9.32112 -27.94367,-12.34285 -42.70835,-6.57928 -10.28104,4.01332 -18.13004,11.59447 -22.77157,20.85993 -11.19157,-6.66773 -25.01661,-8.34414 -37.87397,-3.32512 z"
         style="fill:#a0892c;fill-opacity:1;stroke:#444d66;stroke-width:5.13509035;stroke-opacity:1" />
    </g>
  </g>
</svg>
